<?xml version="1.0" standalone="no"?>
<!DOCTYPE svg PUBLIC "-//W3C//DTD SVG 20010904//EN"
 "http://www.w3.org/TR/2001/REC-SVG-20010904/DTD/svg10.dtd">
<svg version="1.0" xmlns="http://www.w3.org/2000/svg"
 width="512.000000pt" height="512.000000pt" viewBox="0 0 512.000000 512.000000"
 preserveAspectRatio="xMidYMid meet">
<metadata>
Created by potrace 1.11, written by Peter Selinger 2001-2013
</metadata>
<g transform="translate(0.000000,512.000000) scale(0.100000,-0.100000)"
fill="#000000" stroke="none">
<path d="M707 5110 c-330 -39 -591 -270 -679 -600 l-23 -85 0 -1880 0 -1880
28 -90 c82 -263 279 -460 542 -542 l90 -28 1895 0 1895 0 90 28 c263 82 460
279 542 542 l28 90 0 1880 0 1880 -23 85 c-78 294 -280 498 -577 582 l-80 23
-1830 1 c-1007 1 -1861 -2 -1898 -6z m2065 -1685 c198 -40 352 -156 437 -330
36 -74 67 -193 53 -207 -5 -5 -79 -7 -166 -6 l-157 3 -30 70 c-59 140 -151
198 -319 199 -112 1 -161 -17 -234 -84 -112 -104 -165 -282 -153 -518 10 -185
41 -275 128 -367 84 -88 187 -124 312 -106 143 20 234 102 277 249 l13 42 164
0 c188 0 177 8 142 -106 -36 -118 -86 -202 -174 -289 -133 -134 -262 -185
-470 -185 -133 0 -204 12 -305 51 -274 106 -430 385 -430 769 0 288 69 481
229 640 87 87 152 127 266 165 98 33 281 37 417 10z m1898 -150 l0 -145 -235
0 -235 0 0 -650 0 -650 -170 0 -170 0 0 650 0 650 -240 0 -240 0 0 138 c0 76
3 142 7 145 3 4 294 7 645 7 l638 0 0 -145z m-2960 -5 l0 -140 -395 0 -395 0
0 -180 0 -180 345 0 345 0 0 -140 0 -140 -345 0 -345 0 0 -330 0 -330 -165 0
-165 0 0 790 0 790 560 0 560 0 0 -140z"/>
</g>
</svg>
